<svg width="24" height="24" viewBox="0 0 24 24" fill="none" xmlns="http://www.w3.org/2000/svg">
<path d="M22.4684 6.5175C22.3801 6.17189 22.2109 5.85224 21.9747 5.58491C21.7385 5.31758 21.4421 5.11024 21.11 4.98C17.8962 3.73875 12.7812 3.75 12.5 3.75C12.2188 3.75 7.10375 3.73875 3.89 4.98C3.5579 5.11024 3.26153 5.31758 3.02534 5.58491C2.78915 5.85224 2.6199 6.17189 2.53156 6.5175C2.28875 7.45313 2 9.16313 2 12C2 14.8369 2.28875 16.5469 2.53156 17.4825C2.61977 17.8283 2.78895 18.1481 3.02515 18.4156C3.26136 18.6831 3.5578 18.8906 3.89 19.0209C6.96875 20.2088 11.7875 20.25 12.4381 20.25H12.5619C13.2125 20.25 18.0341 20.2088 21.11 19.0209C21.4422 18.8906 21.7386 18.6831 21.9748 18.4156C22.211 18.1481 22.3802 17.8283 22.4684 17.4825C22.7113 16.545 23 14.8369 23 12C23 9.16313 22.7113 7.45313 22.4684 6.5175ZM15.7081 12.3122L11.2081 15.3122C11.1516 15.3499 11.086 15.3715 11.0181 15.3748C10.9503 15.3781 10.8829 15.3629 10.823 15.3309C10.7631 15.2988 10.7131 15.2511 10.6782 15.1928C10.6434 15.1346 10.625 15.0679 10.625 15V9C10.625 8.9321 10.6434 8.86545 10.6782 8.80718C10.7131 8.74892 10.7631 8.70121 10.823 8.66916C10.8829 8.63711 10.9503 8.62191 11.0181 8.6252C11.086 8.62849 11.1516 8.65013 11.2081 8.68782L15.7081 11.6878C15.7596 11.722 15.8017 11.7685 15.8309 11.8229C15.8601 11.8774 15.8754 11.9382 15.8754 12C15.8754 12.0618 15.8601 12.1226 15.8309 12.1771C15.8017 12.2315 15.7596 12.278 15.7081 12.3122Z" fill="currentColor" />
</svg>
